<?xml version="1.0" encoding="UTF-8" standalone="no"?>
<svg
   xmlns="http://www.w3.org/2000/svg"
   version="1.1">
  <g
     id="layer1"
     transform="translate(0,-1036.3622)">
    <path
       transform="matrix(1.1666667,0,0,1.1666667,0,1033.6955)"
       d="m 6,13 a 3,3 0 1 1 -6,0 3,3 0 1 1 6,0 z"
       id="path4333"
       style="fill:none;fill-opacity:1;stroke:#ffffff;stroke-width:0.60000002;stroke-miterlimit:4;stroke-dasharray:none;stroke-opacity:1" />
    <path
       d="m 6.875,1048.8622 a 3.4,3.4 0 1 1 -6.8,0 3.4,3.4 0 1 1 6.8,0 z"
       id="path4327-3"
       style="display:inline;fill:none;stroke:#ffffff;stroke-width:3.5;stroke-miterlimit:4;stroke-dasharray:none;stroke-opacity:1" />
    <path
       transform="matrix(1.125,0,0,1.1250023,0.125,1034.2372)"
       d="m 6,13 a 2.9,2.9 0 1 1 -5.8,0 2.9,2.9 0 1 1 5.8,0 z"
       id="path4327"
       style="display:inline;fill:none;stroke:#046eb0;stroke-width:2.5;stroke-miterlimit:4;stroke-dasharray:none;stroke-opacity:1" />
  </g>
</svg>
