<?xml version="1.0" encoding="UTF-8"?>
<svg width="14pt" version="1.1" xmlns="http://www.w3.org/2000/svg" height="14pt" viewBox="0 0 14 14" xmlns:xlink="http://www.w3.org/1999/xlink">
 <defs/>
 <g id="Fondo">
  <path style="fill:#000000; fill-rule:evenodd;stroke:none;" id=" rect57-6" d="M4.03168e-07 0 L1.5 0 C1.5 0 1.5 1.88689e-05 1.5 4.21449e-05 L1.5 11.2 C1.5 11.2 1.5 11.2 1.5 11.2 L4.03168e-07 11.2 C1.80504e-07 11.2 0 11.2 0 11.2 L0 4.21449e-05 C0 1.88689e-05 1.80504e-07 0 4.03168e-07 0 Z" transform="translate(3, 0.5)"/>
  <path style="fill:#000000; fill-rule:evenodd;stroke:none;" id="Copia de   rect57-6" d="M4.03167e-07 0 L1.5 0 C1.5 0 1.5 1.88689e-05 1.5 4.21449e-05 L1.5 11.2 L1.5 11.2 L4.03167e-07 11.2 C1.80504e-07 11.2 0 11.2 0 11.2 L0 4.21449e-05 C0 1.88689e-05 1.80504e-07 0 4.03167e-07 0 Z" transform="translate(9, 0.5)"/>
  <path style="fill:#000000; fill-rule:evenodd;stroke:none;" id="Copia de   rect55" d="M3.69559e-06 0 L13.75 0 C13.75 0 13.75 3.36944e-06 13.75 7.52588e-06 L13.75 1.99999 C13.75 2 13.75 2 13.75 2 L3.69559e-06 2 C1.65458e-06 2 0 2 0 1.99999 L0 7.52588e-06 C0 3.36944e-06 1.65458e-06 0 3.69559e-06 0 Z" transform="translate(0.09375, 2)"/>
  <path style="fill:#000000; fill-rule:evenodd;stroke:none;" id="Copia de   rect55 (2)" d="M3.69559e-06 0 L13.75 0 C13.75 0 13.75 3.36944e-06 13.75 7.52588e-06 L13.75 1.99999 C13.75 2 13.75 2 13.75 2 L3.69559e-06 2 C1.65458e-06 2 0 2 0 1.99999 L0 7.52588e-06 C0 3.36944e-06 1.65458e-06 0 3.69559e-06 0 Z" transform="translate(0.09375, 5.625)"/>
 </g>
</svg>
